<?xml version="1.0" standalone="no"?>
<!DOCTYPE svg PUBLIC "-//W3C//DTD SVG 20010904//EN"
 "http://www.w3.org/TR/2001/REC-SVG-20010904/DTD/svg10.dtd">
<svg version="1.0" xmlns="http://www.w3.org/2000/svg"
 width="256.000000pt" height="256.000000pt" viewBox="0 0 256.000000 256.000000"
 preserveAspectRatio="xMidYMid meet">

<g transform="translate(0.000000,256.000000) scale(0.100000,-0.100000)"
fill="#000000" stroke="none">
<path d="M660 2098 l0 -128 290 0 290 0 0 -40 0 -40 -460 0 c-294 0 -477 -4
-510 -11 -69 -15 -129 -62 -162 -128 l-28 -55 0 -380 c0 -238 4 -395 11 -419
14 -52 73 -115 134 -143 45 -22 64 -24 202 -24 l151 0 4 183 c3 176 4 184 31
239 16 32 48 75 73 97 80 70 88 71 536 71 271 0 414 4 446 12 31 8 59 25 87
52 76 77 75 70 75 466 0 312 -2 351 -15 340 -8 -7 -15 -17 -15 -22 0 -16 -62
-67 -110 -89 -59 -29 -163 -35 -341 -20 -149 13 -230 30 -293 61 l-39 19 -29
-24 c-23 -19 -41 -25 -80 -25 -47 0 -55 4 -89 40 -21 22 -47 40 -57 40 -22 0
-84 29 -94 44 -4 6 -8 -46 -8 -116z"/>
</g>
</svg>
