<?xml version="1.0" standalone="no"?>
<!DOCTYPE svg PUBLIC "-//W3C//DTD SVG 20010904//EN"
 "http://www.w3.org/TR/2001/REC-SVG-20010904/DTD/svg10.dtd">
<svg version="1.0" xmlns="http://www.w3.org/2000/svg"
 width="22.000000pt" height="22.000000pt" viewBox="0 0 22.000000 22.000000"
 preserveAspectRatio="xMidYMid meet">

<g transform="translate(0.000000,22.000000) scale(0.100000,-0.100000)"
fill="#000000" stroke="none">
<path d="M98 203 c6 -2 18 -2 25 0 6 3 1 5 -13 5 -14 0 -19 -2 -12 -5z"/>
<path d="M40 175 c-13 -14 -22 -26 -19 -28 2 -1 16 10 31 25 15 15 23 28 19
28 -4 0 -18 -11 -31 -25z"/>
<path d="M165 177 c21 -18 25 -28 20 -50 -4 -15 -11 -27 -16 -27 -5 0 -9 -4
-9 -10 0 -5 7 -10 15 -10 20 0 19 -9 -2 -35 -10 -11 -6 -8 10 7 15 16 27 37
27 47 0 32 -22 81 -40 91 -31 16 -33 11 -5 -13z"/>
<path d="M15 100 c3 -20 17 -45 32 -60 25 -23 26 -23 8 -1 -11 12 -26 39 -32
60 l-13 36 5 -35z"/>
<path d="M110 85 c0 -8 5 -15 10 -15 6 0 10 7 10 15 0 8 -4 15 -10 15 -5 0
-10 -7 -10 -15z"/>
<path d="M103 13 c9 -2 23 -2 30 0 6 3 -1 5 -18 5 -16 0 -22 -2 -12 -5z"/>
</g>
</svg>
